<svg xmlns="http://www.w3.org/2000/svg" viewBox="0 0 344.69 128.33"><defs><style>.cls-1{fill:#fff;}.cls-2{fill:#f9b115;}</style></defs><g id="Camada_2" data-name="Camada 2"><g id="Camada_1-2" data-name="Camada 1"><path class="cls-1" d="M76.19,94.82a5.17,5.17,0,0,1,1.54,3.59,5,5,0,0,1-1.54,3.6,5,5,0,0,1-3.6,1.65,5.58,5.58,0,0,1-3.7-1.65L64.67,97.8a41.86,41.86,0,0,1-23.85,6.89,42.41,42.41,0,0,1-21.23-5.25A36.64,36.64,0,0,1,5.14,84.79,43.71,43.71,0,0,1,0,63.46,43.47,43.47,0,0,1,5.14,42.17a36.83,36.83,0,0,1,14.45-14.6,42.51,42.51,0,0,1,21.23-5.24A42.37,42.37,0,0,1,62,27.57a37.19,37.19,0,0,1,14.49,14.6,43.17,43.17,0,0,1,5.19,21.29,46,46,0,0,1-2.41,15.11,38.4,38.4,0,0,1-6.94,12.34ZM57.27,90.39,47.4,80.52a5.58,5.58,0,0,1-1.65-3.7,5,5,0,0,1,1.65-3.6,5.12,5.12,0,0,1,3.7-1.64,4.81,4.81,0,0,1,3.6,1.64L64.88,83.51a32.29,32.29,0,0,0,6.47-20.05,33.11,33.11,0,0,0-3.9-16A28.93,28.93,0,0,0,56.6,36.11,30.39,30.39,0,0,0,40.82,32,30.4,30.4,0,0,0,25,36.11,28.91,28.91,0,0,0,14.19,47.42a33,33,0,0,0-3.91,16,33,33,0,0,0,3.91,16,29.18,29.18,0,0,0,10.9,11.36A30.19,30.19,0,0,0,40.82,95,29.71,29.71,0,0,0,57.27,90.39Z"/><path class="cls-1" d="M138.14,48.75a5.15,5.15,0,0,1,1.44,3.81V98.41a5.21,5.21,0,0,1-1.44,3.76,5.28,5.28,0,0,1-9-3.76V97.28a22.68,22.68,0,0,1-7.81,5.09,25.92,25.92,0,0,1-9.66,1.8,26.25,26.25,0,0,1-12.75-3.08,21.73,21.73,0,0,1-8.84-9,29.57,29.57,0,0,1-3.19-14.24V52.56a5.25,5.25,0,1,1,10.49,0V77.85c0,5.55,1.48,9.75,4.47,12.6s6.94,4.26,11.87,4.26A17.52,17.52,0,0,0,121.54,93a13.94,13.94,0,0,0,5.55-4.73,11.65,11.65,0,0,0,2-6.68v-29a5,5,0,0,1,1.5-3.81,5.7,5.7,0,0,1,7.55,0Z"/><path class="cls-1" d="M188.53,50.76A27.59,27.59,0,0,1,198.71,61a28.67,28.67,0,0,1,3.75,14.55V98.52a5.24,5.24,0,1,1-10.48,0V94.71a25.88,25.88,0,0,1-33.26,5.66,26,26,0,0,1-9.46-10.23,30.67,30.67,0,0,1-3.45-14.55A29,29,0,0,1,149.52,61a27,27,0,0,1,10.22-10.28A28.52,28.52,0,0,1,174.19,47,27.9,27.9,0,0,1,188.53,50.76Zm-5,41.54A17.79,17.79,0,0,0,190,85.41a20.26,20.26,0,0,0,2.37-9.82A20.57,20.57,0,0,0,190,65.72a18.11,18.11,0,0,0-25.13-6.94,18,18,0,0,0-6.59,6.94,20.26,20.26,0,0,0-2.41,9.87,20,20,0,0,0,2.41,9.82,18.19,18.19,0,0,0,6.59,6.89,18.44,18.44,0,0,0,18.61,0Z"/><path class="cls-1" d="M216.22,101.24a15.77,15.77,0,0,1-5.5-6.78,23.88,23.88,0,0,1-1.95-9.82V32.75a5.14,5.14,0,1,1,10.28,0V84.64a12.33,12.33,0,0,0,1.44,6.27,4.25,4.25,0,0,0,3.7,2.47h2.57a4.27,4.27,0,0,1,3.34,1.44,5.33,5.33,0,0,1,1.29,3.7,4.39,4.39,0,0,1-2,3.7,8.26,8.26,0,0,1-5,1.44h-.21A13.85,13.85,0,0,1,216.22,101.24Z"/><path class="cls-1" d="M239.05,102.17a5.09,5.09,0,0,1-1.49-3.76V56.92a5,5,0,0,1,1.49-3.81,5.22,5.22,0,0,1,9,3.81V98.41a5.21,5.21,0,0,1-1.44,3.76,5.53,5.53,0,0,1-7.55,0Z"/><path class="cls-1" d="M289.53,94.82a5.37,5.37,0,0,1,1.28,3.7,4.63,4.63,0,0,1-1.69,3.7,6.55,6.55,0,0,1-4.38,1.44h-1.85a17,17,0,0,1-9.2-2.62,18.34,18.34,0,0,1-6.53-7.15,21.7,21.7,0,0,1-2.36-10.18V58.32h-4.73a4.93,4.93,0,0,1-3.5-1.24A4,4,0,0,1,255.24,54a4.26,4.26,0,0,1,1.33-3.29,4.93,4.93,0,0,1,3.5-1.24h4.73V32.54a5.14,5.14,0,1,1,10.28,0V49.47h8.74a4.94,4.94,0,0,1,3.5,1.24A4.26,4.26,0,0,1,288.65,54a4,4,0,0,1-1.33,3.08,4.94,4.94,0,0,1-3.5,1.24h-8.74V83.71a10.54,10.54,0,0,0,2.26,6.89,6.92,6.92,0,0,0,5.55,2.78h3.5A4.07,4.07,0,0,1,289.53,94.82Z"/><path class="cls-1" d="M344.69,51.94a6.5,6.5,0,0,1-.62,2.47l-31.46,70.74q-1.23,3.18-4,3.18a6.46,6.46,0,0,1-2.47-.61c-2.06-.9-3.08-2.23-3.08-4a5.46,5.46,0,0,1,.61-2.47L313.94,98.1,290.81,54.2A4.37,4.37,0,0,1,290.3,52a4.07,4.07,0,0,1,.82-2.46,5.39,5.39,0,0,1,2.16-1.75,5,5,0,0,1,2.05-.41,4.61,4.61,0,0,1,4.32,2.88l18.82,37.42L335,50.4q1.34-3,4-3a6,6,0,0,1,2.47.51C343.62,48.75,344.69,50.09,344.69,51.94Z"/><path class="cls-2" d="M268.26.62a2.39,2.39,0,0,0-3.37.16L242.94,25,232.59,16.5a2.4,2.4,0,0,0-3.49,3.24l10.76,15.31A4.54,4.54,0,0,0,241,36.16,4.43,4.43,0,0,0,247.14,35l.18-.26,21.3-31A2.38,2.38,0,0,0,268.26.62Z"/></g></g></svg>